# xmcd
#
# Track frame offsets:
#	150
#	24348
#	45961
#	71195
#	97519
#	117223
#	145050
#	167175
#	189392
#	215686
#
# Disc length: 3228 seconds
#
# Revision: 0
# Processed by: cddbd v1.5.2PL0 Copyright (c) Steve Scherf et al.
# Submitted via: EZCDAudioConverter 8.0.2.1
#
DISCID=800c9a0a
DTITLE=Đăng Vũ - Tâm Sự Người Hát Nhạc Tình
DYEAR=2015
DGENRE=
TTITLE0=Lời đầu năm cho con
TTITLE1=Người xa về thành phố
TTITLE2=Chuyện chúng mình
TTITLE3=Lối về đất mẹ
TTITLE4=Tôi vẫn nhớ
TTITLE5=Túy ca
TTITLE6=Thói đời
TTITLE7=Biết đến bao giờ
TTITLE8=Người em xóm đạo
TTITLE9=Tâm sự người hát bài quê hương
EXTD=
EXTT0=
EXTT1=
EXTT2=
EXTT3=
EXTT4=
EXTT5=
EXTT6=
EXTT7=
EXTT8=
EXTT9=
PLAYORDER=
